<svg xmlns="http://www.w3.org/2000/svg" viewBox="0 0 20 20"><path d="M.672 13.055l.328-1.4-.328-1.448c-.01-.043-.092-.076-.19-.076-.103 0-.185.034-.192.077L0 11.654l.29 1.4c.007.045.09.076.19.076s.183-.03.192-.075zm2.05.777L3 11.668 2.723 8.32c-.01-.084-.114-.152-.24-.152s-.232.068-.237.152L2 11.668l.246 2.164c.006.086.11.152.238.152.125 0 .23-.066.24-.152zm2.046-.035L5 11.67l-.232-4.457c-.006-.106-.13-.188-.282-.188-.152 0-.275.082-.28.188L4 11.67l.205 2.13c.006.102.13.185.28.185.154 0 .277-.083.283-.188zm2.042-.03L7 11.67l-.19-4.49c-.005-.123-.146-.22-.32-.22-.176 0-.316.097-.32.22L6 11.67l.17 2.096c.004.123.145.22.32.22.174 0 .315-.095.32-.22zm2.04-.03L9 11.673l-.15-5.15c-.004-.14-.164-.254-.358-.254-.194 0-.354.115-.357.256L8 11.67l.135 2.068c.003.14.163.256.357.256.194 0 .354-.113.358-.256zm1.427.26l7.145.003C18.846 14 20 12.883 20 11.506c0-1.377-1.154-2.492-2.578-2.492-.353 0-.69.07-.996.193C16.22 6.96 14.273 5.2 11.896 5.2c-.58 0-1.147.11-1.647.296-.197.074-.248.148-.25.295v7.91c.002.154.124.28.277.296z"/></svg>
